<?xml version="1.0" encoding="UTF-8"?>
<!DOCTYPE svg PUBLIC "-//W3C//DTD SVG 1.1//EN" "http://www.w3.org/Graphics/SVG/1.1/DTD/svg11.dtd">
<!-- Creator: CorelDRAW X6 -->
<svg xmlns="http://www.w3.org/2000/svg" xml:space="preserve" width="8.4666mm" height="8.4666mm" version="1.1" style="shape-rendering:geometricPrecision; text-rendering:geometricPrecision; image-rendering:optimizeQuality; fill-rule:evenodd; clip-rule:evenodd"
viewBox="0 0 847 847"
 xmlns:xlink="http://www.w3.org/1999/xlink">
 <defs>
  <style type="text/css">
   <![CDATA[
    .fil6 {fill:#1C1B17}
    .fil0 {fill:#1C1B17;fill-rule:nonzero}
   ]]>
  </style>
 </defs>
 <g id="i-panorama">
  <path class="fil0" d="M272 419c0,-5 45,-9 45,-53 0,-38 -38,-49 -70,-49 -26,0 -49,7 -68,20l20 30c14,-9 28,-15 44,-15 20,0 30,8 30,24 0,26 -26,28 -46,28l-16 0 0 34 16 0c19,0 50,1 50,27 0,26 -20,31 -42,31 -19,0 -39,-5 -55,-14l0 37c17,7 37,11 60,11 42,0 84,-15 84,-63 0,-31 -23,-44 -51,-48l-1 0zm219 39c0,-38 -19,-66 -59,-66 -21,0 -36,8 -45,24 -6,0 4,-33 7,-38 12,-22 35,-27 58,-27 8,0 17,1 25,3l0 -35c-7,-1 -16,-2 -28,-2 -35,0 -61,10 -78,30 -17,20 -26,51 -26,92 0,19 3,36 9,49 13,28 36,42 67,42 45,0 71,-28 71,-72l-1 0zm-50 27c-11,14 -33,12 -44,-2 -11,-14 -13,-36 1,-49 12,-11 34,-13 44,0 10,12 9,39 0,51l-1 0zm197 18c25,-36 24,-124 -1,-160 -24,-36 -84,-37 -109,-1 -24,36 -24,125 1,161 24,36 84,37 109,1l0 -1zm-77 -135c9,-23 35,-22 44,0 9,23 9,86 0,109 -9,22 -35,23 -44,0 -9,-23 -9,-87 0,-110l0 1zm147 -30c0,-13 -10,-23 -23,-23 -13,0 -23,10 -23,23 0,13 10,23 23,23 13,0 23,-10 23,-23zm-285 -318c-222,0 -402,180 -402,402 0,116 51,226 136,301l-31 37 145 27 -57 -132 -34 40c-77,-69 -123,-168 -123,-273 0,-201 164,-365 365,-365 201,0 365,164 365,365 0,201 -164,365 -365,365l0 37c222,0 402,-180 402,-402 0,-222 -180,-402 -402,-402l1 0z"/>
 </g>
 <g id="i-viewport">
  <path class="fil6" d="M642 111c-64,-45 -140,-69 -218,-69 -78,0 -154,24 -218,69l194 278c7,-5 16,-8 24,-8 9,0 17,3 24,8l194 -278z"/>
 </g>
 <g id="i-feature">
  <path class="fil0" d="M477 662l-2 -2c-15,0 -30,0 -45,0 -2,0 -3,0 -3,-1 -1,-1 -1,-11 0,-12 0,0 1,0 2,0l37 0 -4 -7c-4,-7 -7,-14 -10,-21 -6,0 -12,0 -17,0 -8,0 -9,-2 -9,-9 0,-58 0,0 0,-175 0,-23 -3,-26 -25,-26l-122 0c-26,0 -28,3 -28,28 0,56 0,112 0,168 0,5 0,11 -1,12 -1,1 -7,1 -13,1 -45,0 -91,0 -136,0 -2,0 -8,0 -9,-2 -1,-1 -2,-4 -2,-9 2,-111 1,-223 0,-333 0,-7 2,-10 8,-12 78,-31 156,-62 234,-93 4,-1 10,-1 14,0 41,16 83,33 123,49 36,14 73,29 109,43 6,3 8,5 8,12 0,42 0,83 0,125l5 0c6,-1 12,-1 17,-1l7 0 0 -107 12 0c3,0 7,0 10,0l0 0c7,0 12,-2 15,-5 3,-3 5,-9 5,-15 0,-11 0,-21 0,-31 0,-10 -4,-17 -14,-21 -11,-4 -21,-9 -32,-13 -5,-2 -6,-4 -6,-9 1,-14 1,-30 0,-44 0,-7 0,-11 5,-14 3,-2 5,-6 5,-13 0,-11 0,-22 0,-34 0,-13 -7,-20 -19,-20 -25,0 -50,0 -75,0 -13,0 -19,8 -19,20 0,11 0,22 0,33 0,8 2,12 5,14 7,5 7,10 6,19 0,2 0,4 -1,6 -3,-1 -5,-2 -7,-2l-31 -13c-40,-16 -81,-33 -121,-50 -11,-5 -20,-5 -31,0 -92,38 0,0 -282,116 -21,8 -22,10 -22,33 0,5 0,12 0,20 0,8 1,14 5,18 4,4 10,5 19,5 6,0 12,0 19,0l0 373c0,20 4,24 24,24l173 0 242 0c-9,-9 -18,-17 -25,-27l2 2zm119 -424c-26,-10 -53,-21 -79,-31 -53,-21 -108,-43 -163,-64 -4,-2 -9,-3 -15,-3 -5,0 -10,1 -14,2 -82,32 -164,65 -246,98 -11,4 -16,12 -17,24 -3,-1 -12,-2 -13,-4 -2,-3 -2,-6 -1,-9 1,-4 5,-8 11,-10l37 -16c77,-32 157,-65 236,-97 2,-1 4,-1 6,-1 3,0 5,0 8,1 79,32 158,65 235,97l40 16c4,2 8,7 9,13 1,3 0,5 -1,6 -2,2 -10,2 -13,3 2,-17 -11,-22 -20,-25l0 0zm-9 -122c-17,0 -35,0 -52,0 -4,-4 -3,-8 0,-12 17,-1 33,-1 50,0 1,1 2,2 2,3 1,3 0,7 0,10l0 -1zm-45 29c11,0 22,0 33,0 1,1 1,1 1,2 0,15 0,30 0,44 -11,-4 -21,-8 -32,-13 -1,-1 -2,-3 -2,-6 -1,-9 0,-18 0,-28l0 1zm-262 509c0,-71 0,-141 0,-212 0,-1 2,-4 3,-5 38,0 75,0 113,0l0 222c-37,0 -74,-1 -111,0 -5,0 -6,0 -6,-6l1 1zm-189 5c-1,-1 0,-6 1,-12 51,0 102,0 153,0 6,0 7,0 7,6 0,4 -1,6 -1,6 -1,1 -2,1 -6,1 -22,0 -44,0 -66,0 -6,0 -85,1 -87,-1l-1 0zm724 69c-20,-20 -40,-40 -60,-60 -4,-4 -9,-7 -15,-8 -3,-1 -7,0 -10,0 -2,-2 -4,-4 -6,-6 12,-15 23,-34 28,-52 30,-95 -38,-192 -138,-197 -52,-2 -101,22 -131,65 -58,82 -20,194 70,228 53,20 108,9 152,-25 2,2 4,4 6,6 -1,3 -1,6 -1,9 1,6 4,12 9,17 20,20 40,41 61,61 4,4 10,6 17,6 6,0 11,-2 15,-5 6,-5 10,-12 11,-19 0,-7 -3,-15 -9,-21l1 1zm-124 -88c-72,72 -200,23 -200,-83 0,-67 57,-120 123,-117 102,5 146,129 77,199l0 1z"/>
 </g>
 <g id="i-rotate-left">
  <path class="fil6" d="M570 24l-396 391c-4,5 -4,13 0,16l396 391c6,5 13,5 17,0l88 -85 -309 -305c-6,-4 -6,-11 0,-16l309 -305 -88 -85c-4,-4 -11,-4 -17,0l0 0 0 -2z"/>
 </g>
 <g id="i-rotate-right">
  <path class="fil6" d="M277 24c-6,-4 -13,-4 -17,0l-88 85 309 305c6,5 6,13 0,16l-309 305 88 85c4,5 11,5 17,0l396 -391c4,-4 4,-11 0,-16l-396 -391 0 0 0 2z"/>
 </g>
 <g id="i-rotate-up">
  <path class="fil6" d="M24 570c-4,6 -4,13 0,17l85 88 305 -309c5,-6 13,-6 16,0l305 309 85 -88c5,-4 5,-11 0,-17l-391 -396c-4,-4 -11,-4 -16,0l-391 396 0 0 2 0z"/>
 </g>
 <g id="i-rotate-down">
  <path class="fil6" d="M24 277l391 396c6,4 13,4 16,0l391 -396c5,-6 5,-13 0,-17l-85 -88 -305 309c-4,6 -11,6 -16,0l-305 -309 -85 88c-4,4 -4,11 0,17l0 0 -2 0z"/>
 </g>
 <g id="i-move-forward">
  <path class="fil6" d="M355 274l0 531c0,10 10,21 21,21l93 0c10,0 21,-10 21,-21l0 -531 247 251 85 -89c5,-3 5,-10 0,-16l-392 -395c-3,-5 -10,-5 -15,0l-389 395c-5,5 -5,13 0,16l85 89 245 -251 -1 0z"/>
 </g>
 <g id="i-move-backward">
  <path class="fil6" d="M822 411l-85 -89 -247 251 0 -531c0,-10 -10,-21 -21,-21l-93 0c-10,0 -21,10 -21,21l0 531 -245 -251 -85 89c-5,3 -5,10 0,16l389 395c5,5 13,5 15,0l392 -395c5,-5 5,-13 0,-16l1 0z"/>
 </g>
 <g id="i-cross">
  <path class="fil6" d="M30 738l84 87 301 -305c4,-5 11,-6 16,0l301 305 84 -87c5,-4 5,-11 0,-16l-295 -299 295 -298c5,-5 5,-12 0,-16l-84 -87 -300 305c-5,6 -12,4 -16,0l-301 -305 -84 87c-4,4 -4,11 0,16l295 299 -295 298c-3,4 -4,12 0,16l-1 0z"/>
 </g>
 <g id="i-arrow-top">
  <polygon class="fil6" points="825,222 423,624 21,222 "/>
 </g>
 <g id="i-arrow-round">
  <path class="fil7" d="M556 271l269 -89 0 268 -123 -79c-85,88 -192,151 -293,195 -153,67 -304,92 -385,99l-3 -34c79,-7 226,-31 375,-96 98,-43 194,-100 276,-185l-115 -79 -1 0z"/>
 </g>
 <g id="i-search">
  <path class="fil7" d="M489 597c-189,111 -436,-1 -465,-222 -23,-173 95,-330 269,-350 169,-19 318,94 343,262 11,74 -4,141 -41,205 -1,2 -1,3 1,5 69,67 139,134 208,201 68,67 -31,176 -105,103 -70,-68 -139,-136 -209,-204l-1 0zm26 -266c0,-101 -83,-185 -183,-185 -101,-1 -185,82 -187,182 -2,103 84,189 186,188 100,0 184,-84 184,-185l0 0z"/>
 </g>
 <g id="i-image">
  <path class="fil6" d="M442 618c-48,-49 -48,-129 -1,-178 82,-86 226,-27 223,90 -3,118 -144,168 -222,88l0 0zm-369 -10l-52 -427 658 -80 31 257 115 13 -42 372 -570 -65 10 -90 -151 18 1 2zm627 -250l-30 -245 -638 77 49 406 143 -17 15 -134c-39,-55 -40,-148 15,-205 99,-103 269,-37 278,99l167 19 1 0zm-458 71l8 -70c0,-6 0,-11 0,-17 2,-30 12,-53 33,-76 7,-7 13,-7 18,1 11,16 21,32 32,48l36 4c-15,-22 -29,-44 -44,-66 -6,-9 -4,-15 6,-19 70,-29 154,24 162,99l30 3c-10,-132 -170,-185 -260,-91 -46,48 -55,125 -21,182l0 2zm26 -120l52 6c-9,-14 -18,-28 -27,-41 -1,-2 -1,-2 -2,0 -10,11 -17,22 -22,36l-1 -1zm-3 10c-13,117 -27,234 -40,352l550 62 40 -352c-183,-21 -368,-42 -550,-62zm218 15l-101 -11c-16,-25 -32,-49 -48,-73 -2,-3 -2,-2 2,-4 64,-26 139,21 148,89l-1 -1zm-35 113c-43,45 -42,119 1,164 73,75 202,26 204,-81 2,-108 -130,-162 -205,-83l0 0zm-4 44c5,-11 11,-21 19,-30 6,-6 11,-6 16,1 28,42 61,92 94,143 5,8 3,14 -6,16 -86,21 -155,-50 -123,-130l0 0zm121 120c0,0 0,0 0,0 -34,-50 -67,-100 -94,-143 -2,-2 -16,25 -17,27 -29,72 34,134 112,116l-1 0zm22 -20c-30,-46 -60,-93 -91,-138 -5,-8 -3,-13 5,-16 90,-36 173,80 106,157 -8,9 -14,7 -21,-2l1 -1zm-83 -144c31,46 61,92 91,139 2,3 2,4 4,1 60,-69 -15,-173 -95,-141 -1,1 -1,0 -1,1l1 0z"/>
 </g>
 <g id="i-menu">
  <path class="fil6" d="M781 380c-717,0 0,0 -717,0 -57,0 -58,87 2,87 239,0 477,0 716,0 57,0 58,-87 -1,-87zm-1 238c-238,0 -477,0 -715,0 -58,0 -58,87 0,87 227,0 0,0 720,0 52,-3 55,-87 -6,-87zm-714 -389c238,0 477,0 715,0 60,0 58,-87 2,-87 -717,0 0,0 -717,0 -59,0 -59,87 0,87z"/>
 </g>
 <g id="i-marker">
  <path class="fil6" d="M549 21c8,3 16,6 23,10 21,13 36,32 50,52 22,34 37,72 47,111 6,24 11,48 8,73 -2,22 -8,43 -12,64 -5,27 -11,54 -16,82 -2,13 -1,26 -1,38 0,3 0,5 0,9 -51,-8 -103,-10 -154,-3 0,-3 0,-5 0,-7 5,-49 -3,-96 -21,-142 -7,-19 -15,-38 -22,-58 -9,-25 -8,-50 -4,-76 3,-25 9,-50 18,-74 9,-25 21,-50 42,-67 7,-6 17,-9 26,-14 6,0 11,0 17,0zm-274 804c-12,-4 -25,-7 -36,-13 -19,-9 -29,-26 -34,-47 -8,-30 -8,-61 -8,-91 0,-9 0,-18 0,-27 16,-2 30,-5 45,-6 36,-3 72,-2 108,2 4,1 6,2 7,6 6,25 12,51 12,77 0,21 -2,41 -13,59 -12,20 -29,31 -51,36 -3,1 -6,2 -9,2 -8,0 -15,0 -23,0zm78 -203c-52,-7 -103,-6 -154,3 0,-3 0,-5 0,-7 2,-33 -6,-65 -13,-97 -5,-22 -11,-44 -15,-66 -4,-26 -1,-52 4,-77 10,-45 26,-88 52,-126 14,-21 31,-40 54,-52 21,-11 44,-8 61,8 17,15 28,35 36,55 17,41 26,84 24,128 0,12 -4,24 -8,35 -13,34 -27,68 -36,104 -6,27 -8,54 -6,81 0,3 0,6 1,11zm296 -104c0,26 -1,53 -8,78 -6,24 -21,41 -44,50 -32,12 -62,10 -90,-11 -17,-13 -26,-32 -29,-53 -4,-29 0,-57 7,-85 4,-16 3,-16 20,-18 39,-5 78,-5 117,0 7,1 14,2 22,3 5,0 7,2 7,7 0,10 0,19 0,29z"/>
 </g>
 <g id="i-file-load">
  <path class="fil8" d="M21 307l0 380c0,34 28,62 62,62l680 0c34,0 62,-28 62,-62l0 -380 -804 0zm804 -74c0,-34 -28,-62 -62,-62l-335 0c-34,0 -69,-16 -78,-36 -9,-20 -43,-36 -78,-36l-158 0c-34,0 -69,16 -78,36 -9,20 -16,64 -16,99l0 12 804 0 0 -12zm-278 276l-112 -135c-5,-6 -19,-7 -24,0l-112 136c-5,6 1,14 11,14l48 0 0 112c0,10 11,16 25,16l80 0c14,0 23,-7 23,-16l0 -112 50 0c10,0 16,-8 11,-14z"/>
 </g>
</svg>
