<?xml version="1.0" encoding="UTF-8"?>
<!DOCTYPE svg PUBLIC "-//W3C//DTD SVG 1.1//EN" "http://www.w3.org/Graphics/SVG/1.1/DTD/svg11.dtd">
<!-- Creator: CorelDRAW X7 -->
<svg xmlns="http://www.w3.org/2000/svg" xml:space="preserve" width="0.299992in" height="0.299992in" version="1.1" style="shape-rendering:geometricPrecision; text-rendering:geometricPrecision; image-rendering:optimizeQuality; fill-rule:evenodd; clip-rule:evenodd"
viewBox="0 0 300 300"
 xmlns:xlink="http://www.w3.org/1999/xlink">
 <defs>
  <style type="text/css">
   <![CDATA[
    .fil1 {fill:black}
    .fil3 {fill:#0A0A0A}
    .fil0 {fill:#1C1B17}
    .fil2 {fill:#252423}
    .fil5 {fill:black;fill-rule:nonzero}
    .fil4 {fill:#0A0A0A;fill-rule:nonzero}
   ]]>
  </style>
 </defs>
  <g id="i-deny">
   <path class="fil0" d="M150 269c-65,0 -119,-54 -119,-119 0,-66 53,-119 119,-119 66,0 119,53 119,119 0,65 -53,119 -119,119zm-76 -60c45,-45 90,-90 135,-135 -31,-27 -88,-32 -127,7 -39,38 -35,96 -8,128zm17 17c34,28 93,30 130,-11 37,-39 30,-95 5,-125 -45,45 -90,91 -135,136z" display="inline"/>
  </g>
  <g id="i-delete">
   <path class="fil1" d="M227 59l-31 0 0 -20c0,-5 -3,-8 -7,-8 -1,0 -1,0 -1,0 0,0 -1,0 -1,0l-76 0c-4,0 -7,3 -7,8l0 20 -32 0c-9,0 -16,7 -16,16l0 27 14 0 0 151c0,9 7,16 16,16l128 0c9,0 16,-7 16,-16l0 -151 14 0 0 -27c0,-9 -7,-16 -17,-16l0 0zm-108 -13l62 0 0 13 -62 0 0 -13zm96 207c0,0 0,1 -1,1l-128 0c-1,0 -1,0 -1,-1l0 -151 130 0 0 151 0 0zm14 -166l-158 0 0 -12c0,-1 0,-1 2,-1l155 0c1,0 1,0 1,1l0 12 0 0zm-52 154l15 0 0 -122 -15 0 0 122zm-34 0l15 0 0 -122 -15 0 0 122zm-34 0l14 0 0 -122 -14 0 0 122z" display="inline"/>
  </g>
  <g id="i-file-load">
   <path class="fil1" d="M31 116l0 112c0,10 8,18 18,18l201 0c10,0 19,-8 19,-18l0 -112 -238 0zm238 -22c0,-10 -9,-19 -19,-19l-99 0c-10,0 -20,-4 -23,-10 -2,-6 -12,-11 -23,-11l-46 0c-10,0 -21,5 -23,11 -3,6 -5,19 -5,29l0 4 237 0 0 -4 1 0zm-83 81l-33 -40c-1,-1 -5,-2 -7,0l-33 41c-1,1 1,4 4,4l14 0 0 33c0,3 3,4 7,4l24 0c4,0 6,-2 6,-4l0 -33 15 0c3,0 5,-3 3,-4l0 -1 0 0z" display="inline"/>
  </g>
  <g id="i-marker">
   <path class="fil0" d="M187 31c2,1 5,2 7,3 6,4 10,10 15,16 6,10 11,21 13,33 2,7 4,14 3,21 -1,7 -3,13 -4,19 -1,8 -3,16 -4,24 -1,4 -1,8 -1,11 0,1 0,2 0,3 -15,-2 -30,-3 -45,-1 0,-1 0,-1 0,-2 1,-14 -1,-28 -6,-42 -2,-5 -5,-11 -7,-17 -3,-7 -2,-15 -1,-22 1,-8 3,-15 5,-22 3,-8 6,-15 13,-20 2,-2 5,-3 7,-4 2,0 4,0 5,0l0 0zm-81 238c-3,-1 -7,-2 -10,-4 -6,-3 -9,-8 -10,-14 -3,-9 -3,-18 -3,-27 0,-2 0,-5 0,-8 5,0 9,-1 13,-2 11,0 22,0 32,1 1,0 2,1 2,2 2,7 4,15 4,23 0,6 -1,12 -4,17 -3,6 -8,9 -15,11 -1,0 -2,0 -3,0 -2,0 -4,0 -6,0l0 1zm23 -60c-15,-2 -30,-2 -45,1 0,-1 0,-2 0,-2 0,-10 -2,-19 -4,-29 -2,-6 -3,-13 -5,-19 -1,-8 0,-16 2,-23 3,-13 7,-26 15,-37 4,-7 9,-12 16,-16 6,-3 13,-2 18,3 5,4 8,10 11,16 5,12 7,25 7,38 0,3 -2,7 -3,10 -4,10 -8,20 -10,31 -2,8 -3,16 -2,24 0,1 0,1 0,3l0 0zm88 -31c0,8 -1,16 -3,23 -2,7 -6,12 -13,15 -9,4 -18,3 -26,-3 -5,-4 -8,-10 -9,-16 -1,-8 0,-17 2,-25 1,-5 1,-5 6,-5 12,-2 23,-2 35,0 2,0 4,0 6,1 2,0 2,0 2,2 0,3 0,5 0,8l0 0 0 0z" display="inline"/>
  </g>
  <g id="i-menu">
   <path class="fil0" d="M44 136l211 0c8,0 13,6 13,14 0,8 -5,14 -13,14l-211 0c-7,0 -13,-6 -13,-14 0,-8 6,-14 13,-14zm0 100l211 0c8,0 13,7 13,14 0,8 -5,14 -13,14l-211 0c-7,0 -13,-6 -13,-14 0,-7 6,-14 13,-14zm0 -199l211 0c8,0 13,6 13,13 0,8 -5,14 -13,14l-211 0c-7,0 -13,-6 -13,-14 0,-7 6,-13 13,-13z" display="inline"/>
  </g>
  <g id="i-image">
   <path class="fil0" d="M155 207c-14,-14 -14,-38 0,-52 24,-26 67,-8 66,26 -1,35 -43,50 -66,26zm-108 -3l-16 -126 194 -23 10 76 34 3 -13 110 -168 -19 3 -26 -45 5 1 0zm185 -73l-9 -73 -189 23 15 120 42 -5 5 -40c-12,-16 -12,-43 4,-60 29,-31 79,-11 82,29l49 6 1 0zm-136 21l3 -21c0,-2 0,-3 0,-5 0,-9 3,-16 10,-22 2,-3 3,-3 5,0 3,5 6,9 9,14l11 1c-5,-6 -9,-13 -13,-19 -2,-3 -1,-5 2,-6 20,-9 45,7 48,29l8 1c-3,-39 -50,-54 -76,-27 -14,14 -17,37 -7,54l0 1 0 0zm8 -36l15 2c-2,-4 -5,-8 -8,-12 0,-1 0,-1 0,0 -3,3 -5,6 -7,10l0 0zm-1 3c-4,35 -8,69 -12,104l163 18 12 -104c-54,-6 -109,-12 -163,-18zm65 5l-30 -4c-5,-7 -10,-14 -14,-21 -1,-1 -1,-1 0,-1 19,-8 41,6 44,26l0 0zm-11 33c-12,13 -12,35 1,48 21,22 59,8 60,-24 0,-31 -39,-47 -61,-24zm-1 13c2,-3 3,-6 6,-9 1,-2 3,-2 4,0 9,13 18,27 28,43 2,2 1,4 -2,4 -25,6 -45,-14 -36,-38zm36 35l0 0c-10,-14 -20,-29 -28,-42 -1,0 -5,8 -5,8 -9,21 10,40 33,34l0 0zm6 -6c-9,-13 -17,-27 -27,-40 -1,-3 0,-4 2,-5 26,-11 51,24 31,46 -2,3 -4,2 -6,0l0 -1zm-24 -42c9,14 18,27 27,41 0,1 0,1 1,0 17,-20 -5,-51 -28,-41 -1,0 -1,0 -1,0l1 0 0 0z" display="inline"/>
  </g>
  <g id="i-search">
   <path class="fil1" d="M169 201c-55,33 -128,0 -137,-65 -7,-51 28,-98 79,-104 50,-5 94,28 102,78 3,22 -1,41 -12,60 -1,1 -1,1 0,2 20,19 41,39 61,59 20,20 -9,52 -31,30 -20,-20 -41,-40 -61,-60l-1 0zm8 -78c0,-30 -24,-55 -54,-55 -30,0 -55,24 -55,54 -1,30 25,56 55,55 29,0 54,-24 54,-54z" display="inline"/>
  </g>
  <g id="i-arrow-round">
   <path class="fil1" d="M189 105l80 -26 0 79 -37 -23c-25,25 -56,44 -86,57 -45,20 -90,27 -114,29l-1 -10c24,-2 67,-9 111,-28 29,-13 57,-30 81,-55l-34 -23 0 0z" display="inline"/>
  </g>
  <g id="i-arrow-top">
   <polygon class="fil0" points="269,91 150,209 31,91 " display="inline"/>
  </g>
  <g id="i-cross">
   <path class="fil0" d="M34 243l25 26 88 -91c2,-1 4,-1 5,0l89 91 25 -26c1,-1 1,-3 0,-5l-87 -88 87 -88c1,-2 1,-4 0,-5l-25 -26 -88 91c-2,1 -4,1 -5,0l-89 -91 -25 26c-1,1 -1,3 0,5l87 88 -87 88c-1,1 -1,4 0,5l0 0 0 0z" display="inline"/>
  </g>
  <g id="i-move-backward">
   <path class="fil0" d="M268 146l-25 -26 -73 74 0 -157c0,-3 -3,-6 -7,-6l-27 0c-3,0 -6,3 -6,6l0 157 -73 -74 -25 26c-1,1 -1,3 0,5l115 117c2,1 4,1 5,0l115 -117c2,-1 2,-4 0,-5l1 0 0 0z" display="inline"/>
  </g>
  <g id="i-move-forward">
   <path class="fil0" d="M130 106l0 157c0,3 3,6 6,6l27 0c3,0 7,-3 7,-6l0 -157 73 74 25 -26c1,-1 1,-3 0,-5l-116 -117c-1,-1 -3,-1 -5,0l-114 117c-2,1 -2,4 0,5l25 26 72 -74 0 0z" display="inline"/>
  </g>
  <g id="i-rotate-down">
   <path class="fil0" d="M32 107l115 117c2,1 4,1 5,0l116 -117c1,-2 1,-4 0,-5l-25 -26 -90 91c-2,2 -4,2 -5,0l-90 -91 -25 26c-2,1 -2,3 0,5l0 0 -1 0 0 0z" display="inline"/>
  </g>
  <g id="i-rotate-up">
   <path class="fil0" d="M32 193c-1,2 -1,4 0,5l25 26 90 -91c2,-2 4,-2 5,0l90 91 25 -26c2,-1 2,-3 0,-5l-115 -117c-2,-1 -4,-1 -5,0l-116 117 0 0 1 0z" display="inline"/>
  </g>
  <g id="i-rotate-right">
   <path class="fil0" d="M107 32c-2,-1 -4,-1 -5,0l-26 25 91 90c2,2 2,4 0,5l-91 90 26 25c1,2 3,2 5,0l117 -115c1,-2 1,-4 0,-5l-117 -116 0 0 0 1z" display="inline"/>
  </g>
  <g id="i-rotate-left">
   <path class="fil0" d="M193 32l-117 115c-1,2 -1,4 0,5l117 116c2,1 4,1 5,0l26 -25 -91 -90c-2,-2 -2,-4 0,-5l91 -90 -26 -25c-1,-1 -3,-1 -5,0l0 0 0 -1z" display="inline"/>
  </g>
  <g id="i-rotate">
   <path class="fil1" d="M143 49c-19,1 -36,7 -52,17 -15,10 -28,23 -37,40 -9,16 -14,34 -14,53 0,14 3,29 9,42 6,14 14,26 24,36 9,9 21,17 34,23 14,6 28,8 43,8 15,0 29,-2 43,-8 14,-6 25,-14 35,-23 10,-10 17,-22 23,-36 6,-13 9,-27 9,-42l-13 0c0,17 -5,33 -13,48 -9,15 -21,27 -35,35 -15,9 -31,13 -49,13 -17,0 -33,-4 -48,-13 -15,-8 -27,-20 -35,-35 -9,-15 -13,-31 -13,-48 0,-13 2,-25 7,-36 4,-12 11,-22 19,-30 8,-9 17,-16 28,-21 11,-5 23,-9 35,-10l0 18 33 -24 -33 -25 0 18 0 0z" display="inline"/>
  </g>
  <g id="i-feature">
   <path class="fil2" d="M165 220c-4,0 -8,0 -13,0 0,0 -1,0 -1,0 0,-1 0,-4 0,-4 0,0 1,0 1,0l11 0c-2,-3 -3,-5 -4,-9 -2,0 -4,0 -5,0 -3,0 -3,0 -3,-2 0,-17 0,0 0,-52 0,-7 -1,-8 -7,-8l-36 0c-8,0 -9,1 -9,9 0,16 0,33 0,49 0,5 1,4 -3,4 -14,0 -27,0 -41,0 -3,0 -3,0 -3,-3 1,-33 0,-66 0,-98 0,-3 1,-3 3,-4 23,-9 46,-18 69,-27 1,-1 3,-1 4,0 12,4 24,9 36,14 11,4 22,9 32,13 2,1 3,1 3,3 0,13 0,25 0,37l1 0c2,0 4,0 5,0l2 0 0 -32c2,0 5,0 7,0 3,0 6,-2 5,-6 0,-3 0,-6 0,-9 0,-3 -1,-5 -4,-6 -3,-1 -6,-3 -9,-4 -2,0 -2,-1 -2,-2 0,-5 0,-9 0,-13 0,-3 0,-4 2,-5 1,0 1,-1 1,-3 0,-4 0,-7 0,-10 0,-4 -2,-6 -5,-6 -8,0 -15,0 -23,0 -3,0 -5,2 -5,6 0,3 0,6 0,9 0,3 0,4 1,4 2,2 2,3 2,6 0,1 0,1 0,2 -15,-5 -33,-13 -47,-19 -3,-2 -6,-2 -9,0 -28,11 0,0 -84,34 -6,2 -6,3 -6,10 0,1 0,3 0,6 0,5 1,6 7,6 1,0 3,0 5,0l0 110c0,6 1,7 7,7l123 0c-3,-2 -6,-5 -8,-8l0 1zm36 -125c-8,-3 -16,-6 -23,-9 -16,-6 -32,-13 -49,-19 -2,-1 -5,-1 -8,0 -24,10 -48,19 -72,29 -4,1 -5,4 -5,7 -1,0 -4,0 -4,-1 -1,-1 -1,-2 -1,-3 1,-1 2,-2 4,-3 81,-33 0,0 81,-33 1,-1 3,0 4,0 23,10 46,19 69,29l12 4c1,1 2,2 3,4 0,1 0,2 -1,2 0,1 -3,1 -4,1 1,-5 -3,-7 -5,-7l-1 -1zm-3 -36c-5,0 -10,0 -15,0 -1,-1 -1,-2 0,-3 5,-1 10,-1 15,0 1,1 1,2 0,4l0 -1zm-13 9c3,0 6,0 10,0 0,0 0,0 0,0 0,5 0,9 0,13 -3,-1 -6,-2 -9,-3 -2,-1 -1,-9 -1,-10l0 0zm-77 150c0,-21 0,-42 0,-63 0,0 0,-1 1,-1 11,0 22,0 33,0l0 66c-11,0 -22,-1 -33,0 -1,0 -2,0 -2,-2l1 0zm-56 2c0,-1 0,-2 0,-4 15,0 30,0 45,0 2,0 2,0 2,2 0,1 0,2 0,2 0,0 0,0 -2,0 -6,0 -45,0 -45,0l0 0zm214 20c-6,-6 -12,-12 -18,-18 -2,-2 -5,-3 -8,-2 0,0 -1,-1 -1,-2 23,-27 5,-71 -32,-73 -16,-1 -30,6 -39,19 -17,24 -6,57 21,67 15,6 31,3 44,-7 1,1 2,1 2,2 0,3 0,5 3,7 5,6 11,12 18,18 6,7 17,-3 10,-11l0 0 0 0zm-37 -26c-21,21 -59,7 -59,-25 0,-19 17,-35 36,-34 30,1 43,38 23,59l0 0z" display="inline"/>
  </g>
  <g id="i-viewport">
   <path class="fil0" d="M214 58c-38,-27 -90,-27 -128,0l57 82c4,-3 10,-3 14,0l57 -82z" display="inline"/>
  </g>
  <g id="i-panorama">
   <path class="fil2" d="M105 149c0,-2 14,-3 14,-16 0,-11 -12,-14 -21,-14 -8,0 -15,2 -20,5l6 9c4,-2 8,-4 13,-4 6,0 9,2 9,7 0,8 -8,8 -14,8l-5 0 0 10 5 0c6,0 15,1 15,8 0,8 -6,9 -13,9 -5,0 -11,-1 -16,-4l0 11c5,2 11,3 18,3 12,0 25,-4 25,-18 0,-9 -7,-13 -15,-14l-1 0zm65 11c0,-11 -6,-19 -17,-19 -7,0 -11,2 -14,7 -2,0 1,-10 2,-11 4,-7 11,-8 17,-8 3,0 5,0 8,0l0 -10c-2,0 -5,0 -8,0 -11,0 -18,3 -23,8 -6,6 -8,15 -8,28 0,5 1,10 2,14 4,8 11,12 20,12 14,0 21,-8 21,-21l0 0 0 0zm-15 8c-3,4 -10,4 -13,0 -3,-5 -4,-11 0,-15 4,-3 10,-4 13,0 3,4 3,12 0,15l0 0zm58 5c8,-10 7,-36 0,-47 -7,-10 -25,-11 -32,0 -7,11 -7,37 0,47 7,11 25,11 32,1l0 -1zm-22 -39c2,-7 10,-7 13,0 2,6 2,25 0,32 -3,6 -11,7 -13,0 -3,-7 -3,-26 0,-33l0 1zm43 -9c0,-4 -3,-7 -7,-7 -4,0 -7,3 -7,7 0,4 3,7 7,7 4,0 7,-3 7,-7zm-84 -94c-66,0 -119,53 -119,119 0,34 15,66 40,88l-9 11 43 8 -17 -39 -10 12c-23,-20 -36,-49 -36,-80 0,-60 48,-108 108,-108 59,0 107,48 107,108 0,59 -48,107 -107,107l0 11c65,0 118,-53 118,-118 0,-66 -53,-119 -118,-119l0 0 0 0z" display="inline"/>
  </g>
  <g id="i-info">
   <path class="fil1" d="M177 240l-1 -137 -70 0 0 30 19 0 1 107 -21 0 1 29 88 -1 0 -29 -17 0 0 1zm-27 -157c18,0 28,-12 28,-26 0,-15 -10,-26 -27,-26 -17,0 -27,11 -27,26 0,14 10,26 27,25l-1 1z" display="inline"/>
  </g>
  <path id="i-dis-wireframe" class="fil3" d="M261 90l0 0c1,0 1,-1 2,-1 -1,0 -1,1 -2,1zm0 137l0 0c-3,15 -47,30 -111,30 -63,0 -108,-15 -111,-30l0 0c0,0 0,-1 0,-2 0,-2 1,-4 3,-6l0 0c11,-13 52,-25 108,-25 56,0 98,12 109,25l2 0 -2 0c2,2 3,4 3,6 0,1 0,2 -1,2zm-230 0l0 0c3,25 63,38 119,38 58,0 120,-14 120,-40 0,-1 0,-2 -1,-3l0 -144 0 1 0 -1 0 0 0 0c1,-1 1,-2 1,-3 0,-26 -62,-40 -120,-40 -58,0 -119,14 -119,39l-1 0 0 153 1 0c0,0 0,-1 0,-2 0,-2 0,-5 1,-7 -1,2 -1,5 -1,7 0,1 0,2 0,2zm12 -144c-3,-3 -4,-6 -4,-8 0,0 0,-1 0,-1l0 0c0,-14 46,-31 111,-31 66,0 112,17 112,31 0,0 0,1 0,1 0,2 -2,5 -5,8l0 0c-12,12 -53,23 -107,23 -54,0 -94,-11 -107,-23zm218 127c-19,-16 -66,-24 -111,-24 -46,0 -94,9 -112,25l0 -122c18,17 66,25 112,25 45,0 92,-8 111,-24l0 120z"/>
  <path id="i-slice" class="fil1" d="M176 116l-25 -7 -118 -34 -1 0 0 15 1 128 139 43 6 -145 -2 0zm87 -43c0,0 0,0 0,0 0,-20 -52,-35 -115,-35 -57,0 -105,12 -114,29l147 40c47,-4 82,-18 82,-34zm5 151c0,-1 -1,-3 -1,-4l0 -134c-12,17 -48,26 -83,29l-5 147c47,-4 89,-17 89,-38z"/>
  <path id="i-dis-transparent" class="fil4" d="M260 218c0,0 0,1 0,1 0,0 0,0 0,0 0,3 -1,6 -3,8 0,0 0,0 0,0 -1,2 -1,3 -2,3 -15,17 -61,25 -105,25 -53,0 -109,-12 -110,-35 0,0 0,-1 0,-1l0 -140 0 0c0,-23 57,-36 110,-36 54,0 110,13 110,36 0,2 0,3 0,4l0 132c0,1 0,2 0,3zm-8 -124c-17,14 -60,22 -102,22 -42,0 -86,-8 -103,-23l0 112 0 0 1 0c17,-15 60,-23 102,-23 42,0 85,8 102,23 0,0 0,0 0,0 0,-1 0,-1 0,-1l0 -110zm-102 96c-50,0 -87,10 -99,21 -1,1 -1,2 -1,2 -1,1 -2,2 -2,3 0,1 0,1 0,1 0,1 0,1 0,1 0,1 0,1 0,2 3,13 44,27 102,27 53,0 92,-12 101,-24 1,-1 1,-3 1,-4 0,0 0,0 0,0 0,-3 -1,-5 -4,-8 -12,-11 -49,-21 -98,-21zm0 -140c-60,0 -102,16 -102,29 0,0 0,0 0,0 0,3 1,5 4,8 11,11 49,21 98,21 50,0 87,-10 99,-21 2,-3 4,-5 4,-8 0,0 0,0 0,0 0,-13 -42,-29 -103,-29zm120 31c0,-32 -60,-47 -120,-47 -48,0 -108,12 -119,39l-1 149 3 9c13,25 71,35 117,35 60,0 120,-15 120,-47 0,-1 -1,-134 -1,-134 1,-1 1,-3 1,-4z"/>
  <path id="i-dis-normal" class="fil4" d="M261 219c0,24 -57,37 -111,37 -52,0 -108,-13 -110,-36l-1 0 0 -141 0 0c0,-24 58,-37 111,-37 54,0 111,13 111,37 0,1 0,2 0,4l0 132c0,1 0,2 0,4zm-8 -126c-18,15 -61,23 -103,23 -42,0 -87,-8 -104,-24l0 113 0 8c0,0 1,4 1,6 0,0 0,1 0,1 3,14 45,28 103,28 59,0 100,-14 103,-28 0,0 1,-1 1,-1 0,-2 -1,-15 -1,-15l0 -111zm-103 -43c-60,0 -103,15 -103,29 0,0 0,0 0,0 0,2 1,5 4,7 12,12 49,22 99,22 50,0 88,-10 99,-22 3,-2 5,-5 5,-7 0,0 0,0 0,0 -1,-14 -43,-29 -104,-29zm121 30c0,-32 -61,-46 -121,-46 -48,0 -109,11 -120,38l-1 150 4 9c13,26 70,35 117,35 60,0 121,-14 121,-46 0,-2 -1,-135 -1,-135 1,-2 1,-3 1,-5z"/>
  <polygon id="i-zoom-in" class="fil1" points="132,256 168,256 168,168 256,168 256,132 168,132 168,44 132,44 132,132 44,132 44,168 132,168 "/>
  <polygon id="i-zoom-out" class="fil1" points="44,168 256,168 256,132 44,132 "/>
  <path id="i-zoom-fit" class="fil1" d="M93 95l-43 0 0 37 80 0 0 0 0 0 0 -80 -37 0 0 43zm37 73l-80 0 0 37 43 0 0 43 37 0 0 -80 0 0 0 0zm40 0l0 0 0 80 37 0 0 -43 43 0 0 -37 -80 0 0 0zm37 -73l0 -43 -37 0 0 80 0 0 0 0 80 0 0 -37 -43 0z"/>
  <path id="i-photo" class="fil1" d="M150 128c-18,0 -33,15 -33,33 0,19 15,33 33,33 18,0 33,-15 33,-33 0,-18 -15,-33 -33,-33zm104 -26c-5,-5 -11,-7 -17,-7 -8,0 -16,0 -23,0 -7,0 -10,-2 -12,-8 -2,-6 -4,-11 -5,-17 -3,-6 -5,-8 -11,-8 -24,0 -48,0 -72,0 -6,0 -8,2 -10,8 -2,6 -4,11 -6,17 -2,6 -5,8 -12,8 -6,0 -13,0 -19,0 -13,0 -23,4 -27,18 0,36 0,71 0,107 1,1 1,1 1,2 3,10 11,16 21,16 59,0 117,0 176,0 12,0 18,-8 22,-18 0,-36 0,-71 0,-107 -2,-3 -4,-8 -6,-11zm-104 114c-31,0 -55,-25 -55,-56 0,-29 25,-54 55,-54 30,0 55,25 55,55 0,30 -25,55 -55,55zm80 -83c-4,0 -7,-4 -8,-8 0,-4 4,-8 8,-8 4,0 8,3 8,8 0,4 -4,7 -8,8z"/>
  <path id="i-autorotate" class="fil1" d="M121 64l1 14 10 -7 19 -12 1 -1 -16 -7 -4 -2 -13 -5 1 10c-41,13 -70,51 -70,96 0,49 35,90 82,98l0 -8c-42,-9 -73,-46 -73,-90 0,-40 26,-74 62,-86zm129 86c0,-48 -35,-89 -80,-98l0 9c41,9 71,45 71,89 0,40 -26,74 -62,87l-2 -15 -7 6 -19 13 -4 3 15 5 8 3 11 4 -1 -10c40,-13 70,-51 70,-96zm-62 1l-18 -13 -35 -24 0 73 35 -23 18 -13z"/>
  <path id="i-prj-left" class="fil5" d="M50 258l140 0 0 -61 -83 0 -57 61zm140 -71l0 -74 -80 0 0 74 80 0zm10 0l56 0 0 -136 -56 59 0 77zm50 -145l-140 0 0 61 83 0 57 -61zm0 155l-50 0 0 54 50 -54zm-145 -166l156 0c3,0 5,3 5,5l0 156 0 0 0 1c0,2 0,3 -1,4l-66 70c-1,1 -3,2 -4,2l-156 0c-3,0 -5,-3 -5,-5l0 -156 0 0 0 -1c0,-2 0,-3 1,-4l66 -70 0 0 1 0 0 0 0 0 0 0 0 0 0 0 0 -1 0 0 0 0 0 0 0 0 0 0 0 0 0 0 0 0 0 0 0 0 0 0 1 0c0,0 0,0 0,0l0 0 0 0 0 0 0 -1 1 0 0 0 0 0 0 0 0 0 0 0 0 0 0 0 0 0 0 0 1 0 0 0 0 0 0 0 0 0 0 0 0 0z"/>
  <path id="i-prj-front" class="fil1" d="M195 269l-156 0c-3,0 -5,-3 -5,-5l0 -156 0 0 0 -1c0,-2 0,-3 1,-4l66 -70 0 0 1 0 0 0 0 0 0 0 0 0 0 0 0 -1 0 0 0 0 0 0 0 0 0 0 0 0 0 0 0 0 0 0 0 0 0 0 1 0c0,0 0,0 0,0l0 0 0 0 0 0 0 -1 1 0 0 0 0 0 0 0 0 0 0 0 0 0 0 0 0 0 0 0 1 0 0 0 0 0 0 0 0 0 0 0 0 0 156 0c3,0 5,3 5,5l0 156 0 0 0 1c0,2 0,3 -1,4l-66 70c-1,1 -3,2 -4,2zm-85 -166l83 0 57 -61 -140 0 0 61zm90 84l56 0 0 -136 -56 59 0 77zm50 10l-50 0 0 54 50 -54zm-200 -94l50 0 0 -54 -50 54z"/>
  <path id="i-prj-bottom" class="fil1" d="M190 187l0 -74 -80 0 0 74 80 0zm10 0l56 0 0 -136 -56 59 0 77zm50 -145l-140 0 0 61 83 0 57 -61zm-145 -11l156 0c3,0 5,3 5,5l0 156 0 0 0 1c0,2 0,3 -1,4l-66 70c-1,1 -3,2 -4,2l-156 0c-3,0 -5,-3 -5,-5l0 -156 0 0 0 -1c0,-2 0,-3 1,-4l66 -70 0 0 1 0 0 0 0 0 0 0 0 0 0 0 0 -1 0 0 0 0 0 0 0 0 0 0 0 0 0 0 0 0 0 0 0 0 0 0 1 0c0,0 0,0 0,0l0 0 0 0 0 0 0 -1 1 0 0 0 0 0 0 0 0 0 0 0 0 0 0 0 0 0 0 0 1 0 0 0 0 0 0 0 0 0 0 0 0 0zm-5 82l-56 0 0 136 56 -59 0 -77zm0 -10l0 -54 -50 54 50 0z"/>
  <path id="i-prj-top" class="fil1" d="M50 258l140 0 0 -61 -83 0 -57 61zm140 -71l0 -40 0 -34 -80 0 0 74 80 0zm10 0l56 0 0 -136 -56 59 0 77zm50 10l-50 0 0 54 50 -54zm-145 -166l156 0c3,0 5,3 5,5l0 156 0 0 0 1c0,2 0,3 -1,4l-66 70c-1,1 -3,2 -4,2l-156 0c-3,0 -5,-3 -5,-5l0 -156 0 0 0 -1c0,-2 0,-3 1,-4l66 -70 0 0 1 0 0 0 0 0 0 0 0 0 0 0 0 -1 0 0 0 0 0 0 0 0 0 0 0 0 0 0 0 0 0 0 0 0 0 0 1 0c0,0 0,0 0,0l0 0 0 0 0 0 0 -1 1 0 0 0 0 0 0 0 0 0 0 0 0 0 0 0 0 0 0 0 1 0 0 0 0 0 0 0 0 0 0 0 0 0zm-5 82l-56 0 0 136 56 -59 0 -77z"/>
  <path id="i-prj-right" class="fil1" d="M110 187l80 0 0 -74 -80 0 0 74zm155 10l-66 70c-1,1 -3,2 -4,2l-156 0c-3,0 -5,-3 -5,-5l0 -156 0 0 0 -1c0,-2 0,-3 1,-4l66 -70 0 0 1 0 0 0 0 0 0 0 0 0 0 0 0 -1 0 0 0 0 0 0 0 0 0 0 0 0 0 0 0 0 0 0 0 0 0 0 1 0c0,0 0,0 0,0l0 0 0 0 0 0 0 -1 1 0 0 0 0 0 0 0 0 0 0 0 0 0 0 0 0 0 0 0 1 0 0 0 0 0 0 0 0 0 0 0 0 0 0 0 156 0c3,0 5,3 5,5l0 156 0 0 0 1c0,2 0,3 -1,4zm-72 -94l57 -61 -140 0 0 61 83 0zm-143 155l140 0 0 -61 -83 0 -57 61zm50 -145l-56 0 0 136 56 -59 0 -77zm-50 -10l50 0 0 -54 -50 54z"/>
  <path id="i-prj-back" class="fil1" d="M250 197l-50 0 0 54 50 -54zm-200 61l140 0 0 -61 -83 0 -57 61zm50 -145l-56 0 0 136 56 -59 0 -77zm94 156l-155 0c-3,0 -5,-3 -5,-5l0 -156 0 0 0 -1c0,-2 0,-3 1,-4l66 -70c1,-1 3,-2 4,-2l156 0c3,0 5,3 5,5l0 156 0 0 0 1c0,2 0,3 -1,4l-66 70 -1 0 0 0 0 0 0 0 0 0c-1,1 -2,2 -4,2zm-144 -166l50 0 0 -54 -50 54z"/>
  <path id="i-prj-perspective" class="fil5" d="M79 214l124 0 43 43 -167 0 0 -43zm125 -144l-130 0 -21 -27 151 0 0 27zm13 0l0 -20 25 20 -25 0zm-138 12l125 0 0 119 -125 0 0 -119zm-12 132l0 27 -17 -27 17 0zm-21 -13l0 -147 21 27 0 120 -21 0zm170 9c1,-1 1,-2 1,-2l0 -126 37 0 0 166 -38 -38zm47 -140l-47 -37c-1,-1 -2,-2 -4,-2l0 -1 0 1c-1,0 -1,-1 -2,-1l-171 0c-3,0 -6,3 -6,7l0 171c0,1 1,2 1,3l0 0 34 58 1 -1c1,1 3,2 4,2l188 0c3,0 6,-3 6,-7l0 -187c0,-3 -2,-5 -4,-6z"/>
  <path id="i-explode" class="fil1" d="M104 34l30 -16c1,-1 2,-1 3,0l49 28c0,0 0,0 0,0 1,0 2,1 2,2l0 20 37 -22c1,0 2,0 3,0l49 28c0,0 1,1 1,2 0,1 1,1 1,2l0 55c0,1 -1,2 -2,3l-37 21 0 35c0,1 0,2 -1,2l-48 28 0 31c0,1 0,2 -1,2l-48 28c-1,1 -2,1 -3,1 0,0 -1,0 -2,-1l-48 -28c-1,0 -1,-1 -1,-2l0 -33c-1,0 -1,0 -2,0l-47 -27c-1,0 -1,-1 -1,-2l0 -52c0,-1 0,-1 0,-2 0,0 0,-1 0,-1 0,-2 0,-2 1,-3l14 -8 -30 -18c-1,0 -1,-1 -1,-2l0 -56 0 -1c-1,0 -1,0 -1,-1 0,-1 1,-1 2,-2l48 -28c1,-1 2,-1 3,0l30 17zm-14 159l23 -13 -23 -13 0 26zm2 -28l0 0 9 4 36 22 0 -56 -46 -28 0 20 -1 0 0 35 1 0 0 2 1 1zm48 1l0 0 0 25 23 -13 0 1 23 -14 0 0 2 -1 0 -59 -48 29 0 3 0 0 0 29zm26 14l22 13 0 -11 0 0 0 -15 -22 13zm22 19l-47 27 0 22 0 0 0 32 47 -27 0 -31 0 0 0 -23zm-51 27l0 0 -47 -27 0 1 0 17 0 0c0,1 0,1 0,1l0 2 0 0 0 3 0 0 0 30 0 0 0 0 47 27 0 0 0 -30 0 -3 0 -21 0 0zm-49 -29c0,0 0,-1 0,-1 0,0 0,0 0,0l0 -29c0,0 0,-1 0,-1l0 0 -47 -27 0 52 47 26 0 -19 0 0 0 -1zm37 -115l11 -7 -11 -6 0 13zm17 -7l33 20 0 -17c0,0 0,-1 0,-1 0,-1 1,-2 1,-3l9 -5 0 -19 -43 25zm49 69l0 18 16 -9 -16 -9zm-103 18l0 -33 -13 7c-1,0 -2,0 -3,0 0,0 0,0 0,-1 -1,0 -1,0 -1,0l-15 -8 -15 8 1 1 0 0 46 26zm27 -43l-5 -3 0 0 -19 -11 48 -29 47 27 -47 30 -24 -14zm73 -48l0 0 -3 2 0 0 -5 2 0 0 0 1 46 26 0 0 2 1c0,0 0,0 0,0l47 -27 -1 0 -48 -27 -38 22zm22 84l-19 11c0,0 0,0 0,0l0 30c0,1 0,1 0,2l0 20 47 -26 0 -33 -9 5c-1,0 -2,0 -2,0 -1,0 -2,0 -2,-1l-15 -8zm19 -50l0 55 47 -27 0 -54 0 0 -47 26zm-173 18l3 2 0 0 14 8 0 -16 0 -3 0 -37 -48 -27 -1 55 32 18zm-17 -67l34 18 48 -28 -49 -27 -48 28 15 9zm85 -7c0,0 1,1 1,1l0 16 14 8 45 -26 -49 -28 -28 16 16 9c1,0 1,1 1,2 0,1 0,1 0,2z"/>
</svg>
