<?xml version="1.0" encoding="UTF-8"?>
<!DOCTYPE svg PUBLIC "-//W3C//DTD SVG 1.1//EN" "http://www.w3.org/Graphics/SVG/1.1/DTD/svg11.dtd">
<!-- Creator: CorelDRAW X6 -->
<svg xmlns="http://www.w3.org/2000/svg" xml:space="preserve" width="8.4666mm" height="8.4666mm" version="1.1" style="shape-rendering:geometricPrecision; text-rendering:geometricPrecision; image-rendering:optimizeQuality; fill-rule:evenodd; clip-rule:evenodd"
viewBox="0 0 847 847"
 xmlns:xlink="http://www.w3.org/1999/xlink">
 <defs>
  <style type="text/css">
   <![CDATA[
    .fil0 {fill:#1C1B17}
    .fil1 {fill:black}
    .fil2 {fill:black}
    .fil3 {fill:#1C1B17;fill-rule:nonzero}
    .fil4 {fill:black;fill-rule:nonzero}
   ]]>
  </style>
 </defs>
 <g id="i-deny">
  <path class="fil0" d="M423 825c-221,0 -402,-180 -402,-402 0,-223 180,-403 403,-403 222,0 402,181 402,403 0,222 -180,402 -403,402zm-257 -201c153,-153 306,-306 459,-459 -106,-90 -299,-106 -431,24 -132,130 -120,325 -28,435zm56 56c116,96 316,103 443,-35 124,-135 102,-324 16,-424 -153,153 -306,306 -459,459z"/>
 </g>
 <g id="i-delete">
  <path class="fil1" d="M686 116l-107 0 0 -70c0,-14 -11,-25 -25,-25 -1,0 -2,0 -3,1 0,0 -1,-1 -2,-1l-256 0c-14,0 -25,11 -25,25l0 70 -108 0c-31,0 -55,24 -55,55l0 90 48 0 0 511c0,31 24,54 54,54l432 0c31,0 55,-24 55,-54l0 -511 47 0 0 -90c0,-31 -24,-55 -55,-55l0 0zm-368 -45l211 0 0 45 -211 0 0 -45zm326 700c0,3 -1,5 -5,5l-432 0c-3,0 -5,-1 -5,-5l0 -511 441 0 0 511zm47 -561l-535 0 0 -40c0,-3 1,-5 5,-5l526 0c3,0 5,2 5,5l0 40zm-176 521l50 0 0 -412 -50 0 0 412zm-116 0l50 0 0 -412 -50 0 0 412zm-116 0l50 0 0 -412 -50 0 0 412z"/>
 </g>
 <g id="i-file-load">
  <path class="fil2" d="M21 307l0 380c0,34 28,62 62,62l680 0c34,0 62,-28 62,-62l0 -380 -804 0zm804 -74c0,-34 -28,-62 -62,-62l-335 0c-34,0 -69,-16 -78,-36 -9,-20 -43,-36 -78,-36l-158 0c-34,0 -69,16 -78,36 -9,20 -16,64 -16,99l0 12 804 0 0 -12zm-278 276l-112 -135c-5,-6 -19,-7 -24,0l-112 136c-5,6 1,14 11,14l48 0 0 112c0,10 11,16 25,16l80 0c14,0 23,-7 23,-16l0 -112 50 0c10,0 16,-8 11,-14z"/>
 </g>
 <g id="i-marker">
  <path class="fil0" d="M549 22c8,3 16,6 23,10 21,13 36,32 50,52 22,34 37,72 47,111 6,24 11,48 8,73 -2,22 -8,43 -12,64 -5,27 -11,54 -16,82 -2,13 -1,26 -1,38 0,3 0,5 0,9 -51,-8 -103,-10 -154,-3 0,-3 0,-5 0,-7 5,-49 -3,-96 -21,-142 -7,-19 -15,-38 -22,-58 -9,-25 -8,-50 -4,-76 3,-25 9,-50 18,-74 9,-25 21,-50 42,-67 7,-6 17,-9 26,-14 6,0 11,0 17,0l-1 2zm-274 804c-12,-4 -25,-7 -36,-13 -19,-9 -29,-26 -34,-47 -8,-30 -8,-61 -8,-91 0,-9 0,-18 0,-27 16,-2 30,-5 45,-6 36,-3 72,-2 108,2 4,1 6,2 7,6 6,25 12,51 12,77 0,21 -2,41 -13,59 -12,20 -29,31 -51,36 -3,1 -6,2 -9,2 -8,0 -15,0 -23,0l2 2zm78 -203c-52,-7 -103,-6 -154,3 0,-3 0,-5 0,-7 2,-33 -6,-65 -13,-97 -5,-22 -11,-44 -15,-66 -4,-26 -1,-52 4,-77 10,-45 26,-88 52,-126 14,-21 31,-40 54,-52 21,-11 44,-8 61,8 17,15 28,35 36,55 17,41 26,84 24,128 0,12 -4,24 -8,35 -13,34 -27,68 -36,104 -6,27 -8,54 -6,81 0,3 0,6 1,11l0 0zm296 -104c0,26 -1,53 -8,78 -6,24 -21,41 -44,50 -32,12 -62,10 -90,-11 -17,-13 -26,-32 -29,-53 -4,-29 0,-57 7,-85 4,-16 3,-16 20,-18 39,-5 78,-5 117,0 7,1 14,2 22,3 5,0 7,2 7,7 0,10 0,19 0,29l-2 0z"/>
 </g>
 <g id="i-menu">
  <path class="fil0" d="M66 377l714 0c25,0 45,21 45,47 0,26 -20,47 -45,47l-714 0c-25,0 -45,-21 -45,-47 0,-26 20,-47 45,-47zm0 339l714 0c25,0 45,21 45,47 0,26 -20,47 -45,47l-714 0c-25,0 -45,-21 -45,-47 0,-26 20,-47 45,-47zm0 -677l714 0c25,0 45,21 45,47 0,26 -20,47 -45,47l-714 0c-25,0 -45,-21 -45,-47 0,-26 20,-47 45,-47z"/>
 </g>
 <g id="i-image">
  <path class="fil0" d="M442 618c-48,-49 -48,-129 -1,-178 82,-86 226,-27 223,90 -3,118 -144,168 -222,88zm-369 -10l-52 -427 658 -80 31 257 115 13 -42 372 -570 -65 10 -90 -151 18zm627 -250l-30 -245 -638 77 49 406 143 -17 15 -134c-39,-55 -40,-148 15,-205 99,-103 269,-37 278,99l167 19zm-458 71l8 -70c0,-6 0,-11 0,-17 2,-30 12,-53 33,-76 7,-7 13,-7 18,1 11,16 21,32 32,48l36 4c-15,-22 -29,-44 -44,-66 -6,-9 -4,-15 6,-19 70,-29 154,24 162,99l30 3c-10,-132 -170,-185 -260,-91 -46,48 -55,125 -21,182zm26 -120l52 6c-9,-14 -18,-28 -27,-41 -1,-2 -1,-2 -2,0 -10,11 -17,22 -22,36zm-3 10c-13,117 -27,234 -40,352l550 62 40 -352c-183,-21 -368,-42 -550,-62zm218 15l-101 -11c-16,-25 -32,-49 -48,-73 -2,-3 -2,-2 2,-4 64,-26 139,21 148,89zm-35 113c-43,45 -42,119 1,164 73,75 202,26 204,-81 2,-108 -130,-162 -205,-83zm-4 44c5,-11 11,-21 19,-30 6,-6 11,-6 16,1 28,42 61,92 94,143 5,8 3,14 -6,16 -86,21 -155,-50 -123,-130zm121 120c0,0 0,0 0,0 -34,-50 -67,-100 -94,-143 -2,-2 -16,25 -17,27 -29,72 34,134 112,116zm22 -20c-30,-46 -60,-93 -91,-138 -5,-8 -3,-13 5,-16 90,-36 173,80 106,157 -8,9 -14,7 -21,-2zm-83 -144c31,46 61,92 91,139 2,3 2,4 4,1 60,-69 -15,-173 -95,-141 -1,1 -1,0 -1,1z"/>
 </g>
 <g id="i-search">
  <path class="fil1" d="M489 597c-189,111 -436,-1 -465,-222 -23,-173 95,-330 269,-350 169,-19 318,94 343,262 11,74 -4,141 -41,205 -1,2 -1,3 1,5 69,67 139,134 208,201 68,67 -31,176 -105,103 -70,-68 -139,-136 -209,-204zm26 -266c0,-101 -83,-185 -183,-185 -101,-1 -185,82 -187,182 -2,103 84,189 186,188 100,0 184,-84 184,-185z"/>
 </g>
 <g id="i-arrow-round">
  <path class="fil1" d="M556 271l269 -89 0 268 -123 -79c-85,88 -192,151 -293,195 -153,67 -304,92 -385,99l-3 -34c79,-7 226,-31 375,-96 98,-43 194,-100 276,-185l-115 -79z"/>
 </g>
 <g id="i-arrow-top">
  <polygon class="fil0" points="825,222 423,624 21,222 "/>
 </g>
 <g id="i-cross">
  <path class="fil0" d="M30 738l84 87 301 -305c4,-5 11,-6 16,0l301 305 84 -87c5,-4 5,-11 0,-16l-295 -299 295 -298c5,-5 5,-12 0,-16l-84 -87 -300 305c-5,6 -12,4 -16,0l-301 -305 -84 87c-4,4 -4,11 0,16l295 299 -295 298c-3,4 -4,12 0,16z"/>
 </g>
 <g id="i-move-backward">
  <path class="fil0" d="M822 411l-85 -89 -247 251 0 -531c0,-10 -10,-21 -21,-21l-93 0c-10,0 -21,10 -21,21l0 531 -245 -251 -85 89c-5,3 -5,10 0,16l389 395c5,5 13,5 15,0l392 -395c5,-5 5,-13 0,-16z"/>
 </g>
 <g id="i-move-forward">
  <path class="fil0" d="M355 274l0 531c0,10 10,21 21,21l93 0c10,0 21,-10 21,-21l0 -531 247 251 85 -89c5,-3 5,-10 0,-16l-392 -395c-3,-5 -10,-5 -15,0l-389 395c-5,5 -5,13 0,16l85 89 245 -251z"/>
 </g>
 <g id="i-rotate-down">
  <path class="fil0" d="M24 277l391 396c6,4 13,4 16,0l391 -396c5,-6 5,-13 0,-17l-85 -88 -305 309c-4,6 -11,6 -16,0l-305 -309 -85 88c-4,4 -4,11 0,17l0 0z"/>
 </g>
 <g id="i-rotate-up">
  <path class="fil0" d="M24 570c-4,6 -4,13 0,17l85 88 305 -309c5,-6 13,-6 16,0l305 309 85 -88c5,-4 5,-11 0,-17l-391 -396c-4,-4 -11,-4 -16,0l-391 396 0 0z"/>
 </g>
 <g id="i-rotate-right">
  <path class="fil0" d="M277 24c-6,-4 -13,-4 -17,0l-88 85 309 305c6,5 6,13 0,16l-309 305 88 85c4,5 11,5 17,0l396 -391c4,-4 4,-11 0,-16l-396 -391 0 0z"/>
 </g>
 <g id="i-rotate-left">
  <path class="fil0" d="M570 24l-396 391c-4,5 -4,13 0,16l396 391c6,5 13,5 17,0l88 -85 -309 -305c-6,-4 -6,-11 0,-16l309 -305 -88 -85c-4,-4 -11,-4 -17,0l0 0z"/>
 </g>
 <g id="i-rotate">
  <path class="fil1" d="M401 82c-64,4 -123,23 -176,57 -53,34 -96,79 -127,134 -31,55 -46,115 -46,180 0,50 10,99 30,145 20,46 46,86 79,119 33,33 72,60 118,79 46,20 94,29 145,29 50,0 99,-10 145,-29 46,-20 85,-46 118,-79 33,-33 60,-73 79,-119 20,-46 30,-94 30,-145l-45 0c0,59 -15,114 -44,164 -29,50 -69,90 -119,119 -50,29 -105,44 -164,44 -59,0 -114,-15 -164,-44 -50,-29 -90,-69 -119,-119 -29,-50 -44,-105 -44,-164 0,-42 8,-83 24,-122 16,-39 37,-73 64,-102 27,-29 59,-52 97,-70 38,-18 77,-29 119,-32l0 61 110 -82 -110 -85 0 61 0 0z"/>
 </g>
 <g id="i-feature">
  <path class="fil3" d="M476 660c-15,0 -30,0 -45,0 -2,0 -3,0 -3,-1 -1,-1 -1,-11 0,-12 0,0 1,0 2,0l37 0c-5,-10 -10,-18 -14,-29 -6,0 -12,0 -17,0 -8,0 -9,-2 -9,-9 0,-58 0,0 0,-175 0,-23 -3,-26 -25,-26l-122 0c-26,0 -28,3 -28,28 0,56 0,112 0,168 0,15 1,13 -13,13 -45,0 -91,0 -136,0 -10,0 -11,-1 -11,-11 2,-111 1,-222 0,-333 0,-7 2,-10 8,-12 78,-31 156,-62 234,-93 4,-1 10,-1 14,0 41,16 83,33 123,49 36,14 73,29 109,43 6,3 8,5 8,12 0,42 0,83 0,125l5 0c6,-1 12,-1 17,-1l7 0 0 -107c7,0 15,0 22,0 13,0 21,-7 20,-20 0,-11 0,-21 0,-31 0,-10 -4,-17 -14,-21 -11,-4 -21,-9 -32,-13 -5,-2 -6,-4 -6,-9 1,-14 1,-30 0,-44 0,-7 0,-11 5,-14 3,-2 5,-6 5,-13 0,-11 0,-22 0,-34 0,-13 -7,-20 -19,-20 -25,0 -50,0 -75,0 -13,0 -19,8 -19,20 0,11 0,22 0,33 0,8 2,12 5,14 7,5 7,10 6,19 0,2 0,4 -1,6 -49,-16 -110,-45 -159,-65 -11,-5 -20,-5 -31,0 -92,38 0,0 -282,116 -21,8 -22,10 -22,33 0,5 0,12 0,20 0,19 5,23 23,23 6,0 12,0 19,0l0 373c0,20 4,24 24,24l415 0c-10,-9 -19,-18 -27,-29zm120 -422c-26,-10 -53,-21 -79,-31 -53,-21 -108,-43 -163,-64 -8,-3 -20,-3 -28,0 -82,32 -164,65 -246,98 -11,4 -16,12 -17,24 -3,-1 -12,-2 -13,-4 -2,-3 -2,-6 -1,-9 1,-4 5,-8 11,-10 274,-113 0,0 274,-113 4,-2 10,-1 14,0 79,32 158,65 235,97l40 16c4,2 8,7 9,13 1,3 0,5 -1,6 -2,2 -10,2 -13,3 2,-17 -11,-22 -20,-25zm-9 -122c-17,0 -35,0 -52,0 -4,-4 -3,-8 0,-12 17,-1 33,-1 50,0 4,3 3,9 2,13zm-45 29c11,0 22,0 33,0 1,1 1,1 1,2 0,15 0,30 0,44 -11,-4 -21,-8 -32,-13 -4,-3 -3,-28 -3,-33zm-262 509c0,-71 0,-141 0,-212 0,-1 2,-4 3,-5 38,0 75,0 113,0l0 222c-37,0 -74,-1 -111,0 -5,0 -6,0 -6,-6zm-189 5c-1,-1 0,-6 1,-12 51,0 102,0 153,0 6,0 7,0 7,6 0,4 -1,6 -1,6 -1,1 -2,1 -6,1 -20,0 -152,0 -153,-1zm724 69c-20,-20 -40,-40 -60,-60 -7,-7 -16,-10 -25,-7 -2,-2 -4,-4 -6,-6 80,-94 17,-243 -109,-249 -52,-2 -101,22 -131,65 -58,82 -20,194 70,228 53,20 108,9 152,-25 2,2 4,4 6,6 -2,10 1,19 8,26 20,20 40,41 61,61 22,21 59,-13 34,-38zm-124 -88c-72,72 -200,23 -200,-83 0,-67 57,-120 123,-117 102,5 146,129 77,199z"/>
 </g>
 <g id="i-viewport">
  <path class="fil0" d="M642 111c-130,-91 -306,-91 -436,0l194 278c15,-11 33,-11 48,0l194 -278z"/>
 </g>
 <g id="i-panorama">
  <path class="fil3" d="M272 419c0,-5 45,-9 45,-53 0,-38 -38,-49 -70,-49 -26,0 -49,7 -68,20l20 30c14,-9 28,-15 44,-15 20,0 30,8 30,24 0,26 -26,28 -46,28l-16 0 0 34 16 0c19,0 50,1 50,27 0,26 -20,31 -42,31 -19,0 -39,-5 -55,-14l0 37c17,7 37,11 60,11 42,0 84,-15 84,-63 0,-31 -23,-44 -51,-48zm219 39c0,-38 -19,-66 -59,-66 -21,0 -36,8 -45,24 -6,0 4,-33 7,-38 12,-22 35,-27 58,-27 8,0 17,1 25,3l0 -35c-7,-1 -16,-2 -28,-2 -35,0 -61,10 -78,30 -17,20 -26,51 -26,92 0,19 3,36 9,49 13,28 36,42 67,42 45,0 71,-28 71,-72zm-50 27c-11,14 -33,12 -44,-2 -11,-14 -13,-36 1,-49 12,-11 34,-13 44,0 10,12 9,39 0,51zm197 18c25,-36 24,-124 -1,-160 -24,-36 -84,-37 -109,-1 -24,36 -24,125 1,161 24,36 84,37 109,1zm-77 -135c9,-23 35,-22 44,0 9,23 9,86 0,109 -9,22 -35,23 -44,0 -9,-23 -9,-87 0,-110zm147 -30c0,-13 -10,-23 -23,-23 -13,0 -23,10 -23,23 0,13 10,23 23,23 13,0 23,-10 23,-23zm-285 -318c-222,0 -402,180 -402,402 0,116 51,226 136,301l-31 37 145 27 -57 -132 -34 40c-77,-69 -123,-168 -123,-273 0,-201 164,-365 365,-365 201,0 365,164 365,365 0,201 -164,365 -365,365l0 37c222,0 402,-180 402,-402 0,-222 -180,-402 -402,-402z"/>
 </g>
 <g id="i-info">
  <path class="fil0" d="M428 21c50,0 91,40 91,88 0,49 -41,88 -91,88 -50,0 -91,-40 -91,-88 0,-49 41,-88 91,-88zm-152 347l237 0 0 -102 -237 0 0 102zm64 0l173 0 0 359 -173 0 0 -359zm234 359l-301 0 0 98 301 0 0 -98z"/>
 </g>
 <g id="i-dis-wireframe">
  <path class="fil0" d="M795 681c-10,50 -158,101 -372,101 -61,0 -355,-17 -372,-101 0,-94 300,-112 372,-111 188,0 328,40 365,84 3,4 10,13 7,27zm-771 0c10,84 211,127 399,127 194,0 402,-47 402,-134 0,-3 0,-7 -3,-10l0 -483c3,-3 3,-6 3,-10 0,-87 -208,-134 -402,-134 -194,0 -399,47 -399,131l-3 0 0 513m44 -483c-9,-9 -13,-17 -13,-30 0,-47 154,-104 372,-104 221,0 375,57 375,104 0,13 -8,22 -17,30 -40,40 -178,77 -359,77 -181,0 -315,-37 -359,-77zm731 426c-64,-54 -221,-80 -372,-80 -154,0 -315,30 -375,84l0 -409c60,57 221,84 375,84 151,0 308,-27 372,-80l0 402z"/>
 </g>
 <g id="i-slice">
  <path class="fil1" d="M479 804l-427 -132c-18,-6 -28,-21 -28,-40l-3 -439c0,-15 6,-37 9,-43 52,-98 292,-114 387,-114 126,0 405,15 405,190 0,141 3,282 3,424 0,123 -224,150 -310,160 -9,0 -28,-6 -37,-6zm6 -21l-427 -132c-9,-3 -15,-9 -15,-18l0 -439c0,-15 6,-31 6,-34 46,-86 282,-101 368,-101 114,0 387,12 387,169 0,141 0,282 0,424 0,104 -218,132 -292,138 0,0 -25,-6 -28,-6zm286 -596c0,-61 -160,-107 -353,-107 -175,0 -322,37 -350,89l451 123c49,-4 252,-31 252,-104zm15 464c0,-141 -3,-282 -3,-424 -37,52 -147,80 -255,89l-15 451c144,-12 273,-52 273,-117zm-282 -332l-439 -126 -3 0 0 46 3 393 427 132 18 -445 -6 0z"/>
 </g>
 <g id="i-dis-transparent">
  <path class="fil3" d="M423 775c-178,0 -365,-40 -369,-117 0,-158 0,-315 0,-473 19,-101 301,-121 369,-121 181,0 369,44 369,121 0,152 0,304 0,456 0,129 -283,134 -369,134zm342 -540c-57,47 -201,74 -342,74 -141,0 -288,-27 -345,-77l0 375c69,-57 227,-77 345,-77 141,0 285,27 342,77 0,-124 0,-248 0,-372zm-342 322c-168,0 -292,34 -332,70 -131,131 674,166 674,27 0,-82 -292,-97 -342,-97zm0 -469c-201,0 -342,54 -342,97 0,81 282,97 342,97 49,0 345,-15 345,-97 -23,-81 -297,-97 -345,-97zm402 104c0,-107 -201,-158 -402,-158 -161,0 -362,40 -399,131l-3 499 10 30c44,84 238,117 392,117 201,0 402,-50 402,-158 0,-3 -3,-449 -3,-449 3,-3 3,-10 3,-13z"/>
 </g>
 <g id="i-dis-normal">
  <path class="fil3" d="M423 775c-178,0 -365,-40 -369,-117 0,-158 0,-315 0,-473 19,-101 301,-121 369,-121 181,0 369,44 369,121 0,152 0,304 0,456 0,129 -283,134 -369,134zm342 -540c-57,47 -201,74 -342,74 -141,0 -288,-27 -345,-77l0 415c32,83 228,102 346,102 141,0 318,-32 341,-93 0,-124 -1,-296 -1,-420zm-342 -147c-201,0 -342,54 -342,97 0,81 282,97 342,97 49,0 345,-15 345,-97 -23,-81 -297,-97 -345,-97zm402 104c0,-107 -201,-158 -402,-158 -161,0 -362,40 -399,131l-3 499 10 30c44,84 238,117 392,117 201,0 402,-50 402,-158 0,-3 -3,-449 -3,-449 3,-3 3,-10 3,-13z"/>
 </g>
 <g id="i-zoom-in">
  <polygon class="fil0" points="492,492 826,492 826,355 492,355 492,21 355,21 355,355 21,355 21,492 355,492 355,826 492,826 "/>
 </g>
 <g id="i-zoom-out">
  <polygon class="fil0" points="21,355 826,355 826,492 21,492 "/>
 </g>
 <g id="i-zoom-fit">
  <path class="fil1" d="M194 202l-173 0 0 149 322 0 0 -322 -149 0 0 173zm149 294l-322 0 0 149 173 0 0 173 149 0 0 -322zm161 0l0 322 149 0 0 -173 173 0 0 -149 -322 0zm149 -294l0 -173 -149 0 0 322 322 0 0 -149 -173 0z"/>
 </g>
 <g id="i-photo">
  <path class="fil0" d="M423 343c-66,0 -121,55 -121,121 0,69 55,121 121,121 66,0 121,-55 121,-121 0,-66 -55,-121 -121,-121zm318 -121c-29,0 -59,0 -84,0 -26,0 -37,-7 -44,-29 -7,-22 -15,-40 -18,-62 -11,-22 -18,-29 -40,-29 -88,0 -175,0 -263,0 -22,0 -29,7 -37,29 -7,22 -15,40 -22,62 -7,22 -18,29 -44,29 -22,0 -48,0 -69,0 -48,0 -84,15 -99,66 0,132 0,260 0,391 1,26 13,66 80,66 216,0 428,0 643,0 44,0 74,-24 80,-66 0,-132 0,-260 0,-391 -6,-38 -25,-66 -84,-66zm-318 442c-113,0 -201,-91 -201,-205 0,-106 91,-197 201,-197 110,0 201,91 201,201 0,110 -91,201 -201,201zm263 -333c-1,-20 15,-29 29,-29 15,0 29,11 29,29 1,34 -57,41 -59,0z"/>
 </g>
 <g id="i-autorotate">
  <path class="fil1" d="M317 150l114 -76c-43,-19 -82,-36 -125,-53l4 38c-156,49 -266,194 -266,364 0,186 133,341 311,372l0 -30c-159,-34 -277,-175 -277,-341 0,-152 99,-281 235,-326l4 53zm486 273c0,-182 -133,-338 -304,-372l0 34c156,34 269,171 269,338 0,152 -99,281 -235,330l-8 -57 -114 83c44,15 86,30 129,46l-4 -38c194,-69 266,-235 266,-364zm-235 4l-201 -140 0 277 201 -137z"/>
 </g>
 <g id="i-prj-left">
  <path class="fil4" d="M85 788l473 0 0 -206 -281 0 -193 206zm473 -240l0 -250 -270 0 0 250 270 0zm34 0l189 0 0 -460 -189 199 0 260zm169 -490l-473 0 0 206 280 0 193 -206zm0 524l-169 0 0 183 169 -183zm37 -561c10,0 17,10 17,17 0,177 0,354 0,531 0,7 0,10 -3,14l-223 237c-3,3 -10,7 -14,7l-527 0c-10,0 -17,-10 -17,-17 0,-177 0,-354 0,-531 0,-7 0,-10 3,-14l223 -237c3,-3 5,-6 10,-7l0 0 0 0 0 0 0 0 0 0 0 0 0 0 0 0 0 0 0 0c177,0 354,0 531,0z"/>
 </g>
 <g id="i-prj-front">
  <path class="fil1" d="M575 826l-527 0c-10,0 -17,-10 -17,-17 0,-177 0,-354 0,-531 0,-7 0,-10 3,-14l223 -237c3,-3 6,-7 10,-7l0 0 0 0 0 0 0 0 0 0 0 0 0 0 0 0 0 0 3 0 0 0 0 0 0 0 0 0 0 0 0 0 527 0c10,0 17,10 17,17 0,177 0,354 0,531 0,7 0,10 -3,14l-223 237c-3,3 -10,7 -14,7zm-287 -561l281 0 193 -206 -473 0 0 206zm304 284l189 0 0 -460 -189 199 0 260zm169 34l-169 0 0 183 169 -183zm-676 -318l169 0 0 -183 -169 183z"/>
 </g>
 <g id="i-prj-bottom">
  <path class="fil1" d="M559 548l0 -250 -270 0 0 250 270 0zm34 0l189 0 0 -460 -189 199 0 260zm169 -490l-473 0 0 206 280 0 193 -206zm-490 -37l527 0c10,0 17,10 17,17 0,177 0,354 0,531 0,7 0,10 -3,14l-223 237c-3,3 -10,7 -14,7l-527 0c-10,0 -17,-10 -17,-17 0,-177 0,-354 0,-531 0,-7 0,-10 3,-14l223 -237c2,-3 6,-7 10,-7l0 0 0 0 0 0 0 0 0 0 0 0 0 0 0 0 0 0 3 0 0 0 0 0 0 0 0 0 0 0 0 0zm-17 277l-189 0 0 460 189 -199 0 -260zm0 -34l0 -183 -169 183 169 0z"/>
 </g>
 <g id="i-prj-top">
  <path class="fil1" d="M85 788l473 0 0 -206 -281 0 -193 206zm473 -240l0 -135 0 -115 -270 0 0 250 270 0zm34 0l189 0 0 -460 -189 199 0 260zm169 34l-169 0 0 183 169 -183zm-490 -561l527 0c10,0 17,10 17,17 0,177 0,354 0,531 0,7 0,10 -3,14l-223 237c-3,3 -10,7 -14,7l-527 0c-10,0 -17,-10 -17,-17 0,-177 0,-354 0,-531 0,-7 0,-10 3,-14l223 -237c1,-2 6,-7 10,-7l0 0 0 0 0 0 0 0 0 0 0 0 0 0 0 0 0 0 3 0 0 0 0 0 0 0 0 0 0 0 0 0zm-17 277l-189 0 0 460 189 -199 0 -260z"/>
 </g>
 <g id="i-prj-right">
  <path class="fil1" d="M288 548l270 0 0 -250 -270 0 0 250zm524 34l-223 237c-3,3 -10,7 -14,7l-527 0c-10,0 -17,-10 -17,-17 0,-177 0,-354 0,-531 0,-7 0,-10 3,-14l223 -237c4,-4 7,-7 12,-7l-2 0 0 0 0 0 0 0 0 0 0 0 0 0 0 0 0 0 0 0 3 0 0 0 0 0 0 0 0 0 0 0 0 0 0 0 527 0c10,0 17,10 17,17 0,177 0,354 0,531 0,7 0,10 -3,14zm-243 -318l193 -206 -473 0 0 206 281 0zm-483 524l473 0 0 -206 -281 0 -193 206zm169 -490l-189 0 0 460 189 -199 0 -260zm-169 -34l169 0 0 -183 -169 183z"/>
 </g>
 <g id="i-prj-back">
  <path class="fil1" d="M761 582l-169 0 0 183 169 -183zm-676 206l473 0 0 -206 -281 0 -193 206zm169 -490l-189 0 0 460 189 -199 0 -260zm318 527l-524 0c-10,0 -17,-10 -17,-17 0,-177 0,-354 0,-531 0,-7 0,-10 3,-14l223 -237c3,-3 10,-7 14,-7l527 0c10,0 17,10 17,17 0,177 0,354 0,531 0,7 0,10 -3,14l-226 237c-4,4 -7,7 -14,7zm-487 -561l169 0 0 -183 -169 183z"/>
 </g>
 <g id="i-prj-perspective">
  <path class="fil4" d="M185 638l416 0 144 144 -560 0 0 -144zm419 -483l-436 0 -70 -90 506 0 0 90zm44 0l0 -67 84 67 -84 0zm-463 40l419 0 0 399 -419 0 0 -399zm-40 442l0 90 -57 -90 57 0zm-70 -44l0 -493 70 90 0 402 -70 0zm570 30c1,-14 3,-385 3,-429l124 0 0 556 -127 -127zm158 -469l-158 -124c-5,-5 -13,-10 -20,-10l-573 0c-10,0 -20,10 -20,23l0 573c0,3 1,7 3,10l114 194c3,3 6,3 17,3l630 0c10,0 20,-10 20,-23l0 -627c0,-10 -7,-17 -13,-20z"/>
 </g>
 <g id="i-explode">
  <path class="fil1" d="M329 124l80 -43c3,-3 11,-3 16,0l136 77c0,0 0,0 0,0 5,3 11,8 11,16l0 37 91 -51c5,-5 11,-5 16,0l136 77c8,5 10,8 11,16l0 155c0,8 -3,13 -8,16l-99 56 0 93c0,5 -3,11 -8,13l-131 75 0 83c0,5 -3,11 -8,13l-133 77c-3,3 -8,3 -11,3 -5,0 -8,0 -11,-3l-133 -77c-5,-3 -11,-8 -11,-13l0 -85 -128 -75c-5,-3 -11,-8 -11,-13 0,-52 0,-103 0,-155 0,-5 5,-11 8,-13l27 -16 -69 -43c-5,-3 -11,-8 -11,-13l0 -157c0,-7 0,-15 8,-19l136 -77c5,-3 11,-3 16,0l80 45zm-29 437l37 -21 -37 -21 0 43zm3 -69l21 13 91 51 0 -136 -115 -67 0 40c0,0 0,0 0,3l0 93c0,0 0,0 0,0l0 3c0,0 3,0 3,0zm136 67c38,-22 74,-44 112,-67 3,0 3,0 3,0l3 0 0 -144 -117 72c0,46 0,92 0,139zm80 -16l37 21 0 -16c0,0 0,0 0,-3l0 -27 -37 24zm37 67l-115 64 0 133 115 -67 0 -80c0,0 0,0 0,-3l0 -48zm-141 67l-115 -67 0 37c0,0 0,0 0,3l0 3c0,0 0,0 0,0l0 11c0,0 0,0 0,3l0 75 115 67 0 -131zm-141 -88c0,0 0,0 0,0 0,-3 0,-3 0,-3l0 -80 -112 -64 0 125 112 64 0 -43zm120 -336l8 -3 -8 -3 0 5zm59 -3l67 40 0 -29c0,-3 0,-5 0,-8 0,-5 3,-11 8,-13l19 -11 0 -35 -93 56zm128 205l0 24 21 -13 -21 -11zm-307 21l0 -64 -20 13c-6,3 -14,2 -20,-2l-37 -21 -27 16 104 59zm152 -77l117 -72 -117 -64 -117 69c40,21 78,44 117,67zm133 -149l117 67 115 -64 -120 -67 -112 64zm67 229l-45 27 0 80c0,0 0,3 0,5l0 43 112 -64 0 -75 -11 8c-3,3 -8,3 -11,3 -3,0 -5,-3 -8,-3l-37 -24zm61 -141l0 133 112 -64 0 -133 -112 64zm-453 56l0 -133 -117 -67 0 133 117 67zm8 -157l117 -67 -117 -69 -120 69 120 67zm152 -61c0,0 0,3 0,5l0 37 32 19 109 -64 -117 -67 -61 32 29 19c5,3 8,8 8,13 0,3 0,3 0,5z"/>
 </g>
</svg>
